<svg xmlns="http://www.w3.org/2000/svg" viewBox="0 0 750 500"><g id="freepik--background-complete--inject-7"><path d="M225.78,145.09H99.14V58.45H225.78Zm-125.64-1H224.78V59.45H100.14Z" style="fill:#ebebeb"></path><path d="M109.05,64a2.52,2.52,0,1,1-2.52-2.52A2.52,2.52,0,0,1,109.05,64Z" style="fill:#a6a6a6"></path><path d="M119.34,64a2.52,2.52,0,1,1-2.52-2.52A2.52,2.52,0,0,1,119.34,64Z" style="fill:#ebebeb"></path><path d="M129.63,64a2.52,2.52,0,1,1-2.52-2.52A2.52,2.52,0,0,1,129.63,64Z" style="fill:#FF551E"></path><rect x="99.64" y="68.47" width="125.64" height="1" style="fill:#ebebeb"></rect><path d="M682.37,298.22l-13.12.28-6.66.11c-2.23.05-4.47,0-6.7.06h-.44v-.45L655.39,287v-.5h.5l13.24.06c4.42,0,8.83.11,13.24.16h.28V287c0,1.9-.08,3.79-.13,5.66Zm0,0-.14-5.65c-.05-1.86-.11-3.7-.13-5.54l.27.28c-4.41.05-8.82.16-13.24.16l-13.24.06.5-.5,0,11.19-.45-.44c2.18,0,4.36,0,6.55.05L669,298Z" style="fill:#ebebeb"></path><path d="M667.6,312.33l-13.12.28-6.67.11c-2.22,0-4.46,0-6.69.06h-.44v-.45l0-11.19v-.5h.5l13.24.07c4.41,0,8.83.11,13.24.16h.28v.27c0,1.9-.08,3.79-.13,5.66Zm0,0-.14-5.65c-.05-1.86-.11-3.7-.13-5.54l.27.28c-4.41.05-8.83.16-13.24.16l-13.24.06.5-.5,0,11.19-.45-.44c2.18,0,4.36,0,6.55.05l6.57.12Z" style="fill:#ebebeb"></path><path d="M697.14,312.33l-13.12.28-6.66.11c-2.23,0-4.47,0-6.7.06h-.44v-.45l-.06-11.19v-.5h.5l13.24.07c4.42,0,8.83.11,13.24.16h.28v.27c0,1.9-.09,3.79-.13,5.66Zm0,0-.14-5.65c0-1.86-.11-3.7-.13-5.54l.27.28c-4.41.05-8.82.16-13.24.16l-13.24.06.5-.5,0,11.19-.45-.44c2.19,0,4.36,0,6.55.05l6.58.12Z" style="fill:#ebebeb"></path><path d="M324.79,165.07l-13.12.28-6.66.11c-2.23,0-4.47,0-6.7,0h-.44v-.45l-.06-11.19v-.5h.5l13.24.06c4.42,0,8.83.11,13.24.16h.28v.27c0,1.9-.09,3.78-.14,5.65Zm0,0-.14-5.66c0-1.86-.11-3.7-.13-5.53l.27.27c-4.41,0-8.82.16-13.24.16l-13.24.07.5-.5-.05,11.19-.45-.45c2.18,0,4.36,0,6.55.06l6.58.11Z" style="fill:#ebebeb"></path><path d="M310,179.18l-13.12.28-6.67.11c-2.22,0-4.46,0-6.69.05h-.44v-.45L283,168v-.5h.5l13.24.06c4.41,0,8.83.11,13.24.16h.28V168c0,1.9-.08,3.78-.13,5.65Zm0,0-.14-5.66c-.05-1.86-.11-3.7-.13-5.53l.27.27c-4.41.05-8.83.16-13.24.16l-13.24.07.5-.5L284,179.18l-.45-.45c2.18,0,4.36,0,6.55.06l6.57.11Z" style="fill:#ebebeb"></path><path d="M339.56,179.18l-13.12.28-6.66.11c-2.23,0-4.46,0-6.7.05h-.44v-.45L312.58,168v-.5h.5l13.24.06c4.42,0,8.83.11,13.24.16h.28V168c0,1.9-.09,3.78-.13,5.65Zm0,0-.14-5.66c0-1.86-.11-3.7-.13-5.53l.27.27c-4.41.05-8.82.16-13.24.16l-13.24.07.5-.5-.05,11.19-.45-.45c2.19,0,4.36,0,6.55.06l6.58.11Z" style="fill:#ebebeb"></path><path d="M108.88,311.82l-13.12.28-6.67.11c-2.22.05-4.46,0-6.69.06H82v-.45l0-11.19v-.5h.5l13.24.07c4.41,0,8.83.11,13.24.16h.28v.27c0,1.9-.08,3.79-.13,5.66Zm0,0-.14-5.65c0-1.86-.11-3.71-.13-5.54l.27.28c-4.41,0-8.83.16-13.24.16l-13.24.06.5-.5-.05,11.19-.45-.44c2.18,0,4.36,0,6.55.05l6.57.11Z" style="fill:#ebebeb"></path><path d="M547.86,165.06l-13.12.28-6.66.11c-2.23.05-4.47,0-6.7.05h-.44v-.45l-.06-11.19v-.5h.5l13.24.06c4.42,0,8.83.12,13.24.17h.28v.27c0,1.9-.08,3.79-.13,5.65Zm0,0-.14-5.65c-.05-1.87-.11-3.71-.13-5.54l.27.27c-4.41.05-8.82.16-13.24.17l-13.24.06.5-.5,0,11.19-.45-.45c2.18,0,4.36,0,6.55.06l6.58.11Z" style="fill:#ebebeb"></path><path d="M680.84,56.38l-13.12.28-6.67.11c-2.22,0-4.46,0-6.69.06h-.44v-.45l0-11.19v-.5h.5l13.24.06c4.41,0,8.83.12,13.24.17h.28v.27c0,1.9-.08,3.79-.13,5.65Zm0,0-.14-5.65c-.05-1.87-.11-3.71-.13-5.54l.27.27c-4.41,0-8.83.16-13.24.17l-13.24.06.5-.5-.05,11.19-.45-.45c2.18,0,4.36,0,6.55.06l6.57.11Z" style="fill:#ebebeb"></path><path d="M695.61,70.49l-13.12.28-6.66.11c-2.23.05-4.47,0-6.7.06h-.44v-.45l-.06-11.19v-.5h.5l13.24.06c4.42,0,8.83.12,13.24.17h.28v.27c0,1.9-.09,3.79-.14,5.65Zm0,0-.14-5.65c0-1.87-.11-3.71-.13-5.54l.27.27c-4.41,0-8.82.16-13.24.17l-13.24.06.5-.5,0,11.19-.45-.45c2.18,0,4.36,0,6.55.06l6.58.11Z" style="fill:#ebebeb"></path><path d="M79.34,56.39l-13.13.28-6.66.11c-2.22,0-4.46,0-6.69.06h-.45v-.45l0-11.19v-.5h.51l13.24.07c4.41,0,8.82.11,13.24.16h.27v.27c0,1.9-.09,3.79-.13,5.66Zm0,0-.15-5.65c0-1.86-.11-3.71-.13-5.54l.28.27c-4.42.06-8.83.16-13.24.17l-13.24.06.5-.5L53.3,56.39,52.86,56c2.18,0,4.35,0,6.54,0l6.58.11Z" style="fill:#ebebeb"></path><rect x="121.95" y="109.31" width="497.12" height="307.86" style="fill:#fff"></rect><path d="M619.07,417.17,122,417.54h-.37v-.37l-.13-307.86v-.5h.5l497.12.21h.3v.29Zm0,0-.29-307.86.29.3-497.12.2.5-.5-.13,307.86-.37-.37Z" style="fill:#dbdbdb"></path><rect x="121.95" y="109.31" width="497.12" height="47.5" style="fill:#ebebeb"></rect><rect x="178.9" y="126.78" width="409.59" height="11.58" style="fill:#fff"></rect><path d="M588.61,138.48H178.78V126.66H588.61ZM179,138.24H588.37V126.9H179Z" style="fill:#c7c7c7"></path><path d="M187.86,135.06l-.82.63L185.78,134l-.26-.35-.28-.36h0a1.61,1.61,0,0,0,.31-.19.15.15,0,0,0,.06-.05,2,2,0,0,0,.4-.46h0l.29.38.27.35Z" style="fill:#ebebeb"></path><path d="M186.57,133.34l-.27-.35a1.68,1.68,0,0,0,.22-.42l-.31-.42,0,0a1.43,1.43,0,0,1-.09.27,1,1,0,0,1-.1.21,2,2,0,0,1-.4.46l.12-.1v0l.26.34.27.35,1,1.31-.12.09-1-1.29-.27-.35-.26-.35,0,0a.15.15,0,0,1-.06.05,1.61,1.61,0,0,1-.31.19l-.11,0-.32.1h0l.29.38a2.47,2.47,0,0,0,.42-.17l.26.35,1.26,1.67.82-.63Z" style="fill:#ebebeb"></path><path d="M186.24,130.33a2.24,2.24,0,1,0-3.55,2.73,2.22,2.22,0,0,0,2.41.78,2.47,2.47,0,0,0,.42-.17,1.89,1.89,0,0,0,.3-.19s.05,0,.06,0l.11-.11a2,2,0,0,0,.31-.33,1.68,1.68,0,0,0,.22-.42A2.22,2.22,0,0,0,186.24,130.33Zm-.14,2.06a1,1,0,0,1-.1.21,2,2,0,0,1-.4.46.15.15,0,0,1-.06.05,1.61,1.61,0,0,1-.31.19l-.11,0-.32.1-.33,0a1.78,1.78,0,1,1,1.72-1.35A1.43,1.43,0,0,1,186.1,132.39Z" style="fill:#ebebeb"></path><path d="M186.52,132.57a2.24,2.24,0,1,0-1.42,1.27,2.47,2.47,0,0,0,.42-.17l.26.35a1.49,1.49,0,0,0,.31-.2l.06,0a.57.57,0,0,0,.11-.11,2,2,0,0,0,.31-.33l-.27-.35A1.68,1.68,0,0,0,186.52,132.57Zm-.58.17a1.21,1.21,0,0,1-.21.24l-.11.1-.06,0-.25.16-.07,0a1,1,0,0,1-.43.15,1.77,1.77,0,0,1-1.78-.66,1.84,1.84,0,0,1-.36-1.34,1.87,1.87,0,0,1,.69-1.19,1.81,1.81,0,0,1,2.85,1.88,1.89,1.89,0,0,1-.2.46S186,132.7,185.94,132.74Z" style="fill:#ebebeb"></path><polygon points="137.34 136.53 133.12 132.65 137.33 128.62 137.99 129.3 134.5 132.64 137.98 135.84 137.34 136.53" style="fill:#fff"></polygon><polygon points="147.52 128.61 151.74 132.49 147.53 136.53 146.87 135.85 150.36 132.5 146.88 129.3 147.52 128.61" style="fill:#fff"></polygon><path d="M605.25,137.32a5.42,5.42,0,0,1-1.6.67,5.51,5.51,0,0,1-4.26-.68,5.57,5.57,0,1,1,5.86,0Z" style="fill:#dbdbdb"></path><path d="M604,131.93a1.7,1.7,0,1,1-1.7-1.69A1.7,1.7,0,0,1,604,131.93Z" style="fill:#fff"></path><path d="M605.25,136.62v.7a5.42,5.42,0,0,1-1.6.67,5.51,5.51,0,0,1-4.26-.68v-.69a2.93,2.93,0,1,1,5.86,0Z" style="fill:#fff"></path><path d="M164.32,137.61a5.49,5.49,0,1,1,5.44-6.2l-1,.13a4.49,4.49,0,1,0-1.12,3.59l.74.67A5.49,5.49,0,0,1,164.32,137.61Z" style="fill:#fff"></path><polygon points="166.32 130.11 166.65 129.61 169.1 131.27 170.58 128.7 171.1 129 169.31 132.12 166.32 130.11" style="fill:#fff"></polygon><polygon points="461.49 92.17 373.51 92.17 369.51 109.31 465.49 109.31 461.49 92.17" style="fill:#ebebeb"></polygon><rect x="453.62" y="96.92" width="0.83" height="7.64" transform="translate(61.73 350.52) rotate(-45)" style="fill:#dbdbdb"></rect><rect x="453.62" y="96.92" width="0.83" height="7.64" transform="translate(204.19 -291.52) rotate(45)" style="fill:#dbdbdb"></rect><rect x="280.51" y="272.02" width="188.98" height="25.78" style="fill:#fff;stroke:#c7c7c7;stroke-miterlimit:10"></rect><rect x="443.71" y="272.02" width="25.79" height="25.78" style="fill:#FF551E"></rect><path d="M464.77,292.14,462.39,294,458,288.12,456.37,286a3.67,3.67,0,0,0,.92-.52,3.83,3.83,0,0,0,1.22-1.59l1.72,2.26Z" style="fill:#fff"></path><path d="M460.09,278.43a6.5,6.5,0,1,0-2.11,9.69,7.24,7.24,0,0,0,.9-.58,6.62,6.62,0,0,0,1.35-1.4A6.5,6.5,0,0,0,460.09,278.43Zm-2.8,7a3.67,3.67,0,0,1-.92.52,3.89,3.89,0,1,1,2.14-2.11A3.83,3.83,0,0,1,457.29,285.47Z" style="fill:#fff"></path><rect x="285.9" y="277.09" width="1.38" height="15.65" style="fill:#263238"></rect><rect x="280.51" y="307.86" width="43.65" height="13.83" style="fill:#c7c7c7"></rect><rect x="353.17" y="307.86" width="43.65" height="13.83" style="fill:#FF551E"></rect><rect x="426.38" y="307.86" width="43.65" height="13.83" style="fill:#c7c7c7"></rect><rect x="314.72" y="244.1" width="120.55" height="8.37" style="fill:#37474f"></rect><rect x="411.76" y="65.44" width="272.35" height="165.67" style="fill:#fff"></rect><path d="M684.1,231.11l-272.34.37h-.38v-.37l-.12-165.67v-.5h.5l272.34.21h.29v.29Zm0,0-.29-165.67.29.29-272.34.21.49-.5-.12,165.67-.37-.37Z" style="fill:#dbdbdb"></path><rect x="411.25" y="53.31" width="273.22" height="12.13" style="fill:#c7c7c7"></rect><path d="M421.12,59.38a1.65,1.65,0,1,1-1.65-1.65A1.64,1.64,0,0,1,421.12,59.38Z" style="fill:#ebebeb"></path><path d="M427.83,59.38a1.65,1.65,0,1,1-1.64-1.65A1.64,1.64,0,0,1,427.83,59.38Z" style="fill:#fff"></path><path d="M434.54,59.38a1.64,1.64,0,1,1-1.64-1.65A1.63,1.63,0,0,1,434.54,59.38Z" style="fill:#dbdbdb"></path><rect x="679.27" y="65.44" width="4.83" height="165.67" style="fill:#dbdbdb"></rect><path d="M681.68,122.88h0a1.24,1.24,0,0,1-1.24-1.25v-54a1.24,1.24,0,0,1,1.24-1.25h0a1.25,1.25,0,0,1,1.25,1.25v54A1.25,1.25,0,0,1,681.68,122.88Z" style="fill:#a6a6a6"></path><rect x="499.83" y="58.99" width="0.4" height="3.68" style="fill:#a6a6a6"></rect><rect x="499.83" y="58.99" width="0.4" height="3.68" transform="translate(560.86 -439.2) rotate(90)" style="fill:#a6a6a6"></rect><rect x="411.76" y="65.44" width="267.52" height="165.67" style="fill:#fff"></rect><path d="M679.27,231.11l-267.51.37h-.37v-.37l-.12-165.67v-.5h.5l267.51.21h.29v.29Zm0,0L679,65.44l.29.29-267.51.21.49-.5-.12,165.67-.37-.37Z" style="fill:#dbdbdb"></path><rect x="411.76" y="65.44" width="267.52" height="25.56" style="fill:#ebebeb"></rect><rect x="442.4" y="74.84" width="220.41" height="6.23" style="fill:#fff"></rect><path d="M662.88,81.14H442.34V74.78H662.88ZM442.47,81H662.75v-6.1H442.47Z" style="fill:#c7c7c7"></path><path d="M447.22,79.3l-.44.33-.68-.89-.14-.19-.14-.19h0l.17-.1,0,0a1,1,0,0,0,.21-.25h0l.15.2.15.19Z" style="fill:#ebebeb"></path><path d="M446.53,78.37l-.15-.19a.68.68,0,0,0,.12-.22l-.17-.23h0a.43.43,0,0,1,0,.14l-.06.11a1,1,0,0,1-.21.25l.06,0h0l.14.18.14.19.53.7-.06,0-.53-.69-.14-.19-.14-.19h0l0,0-.17.1-.06,0-.17.05h0l.16.2a1,1,0,0,0,.22-.09l.14.19.68.89.44-.33Z" style="fill:#ebebeb"></path><path d="M446.35,76.75a1.21,1.21,0,0,0-1.91,1.47,1.19,1.19,0,0,0,1.3.42,1,1,0,0,0,.22-.09,1,1,0,0,0,.17-.1l0,0,.06-.06a.93.93,0,0,0,.16-.18.68.68,0,0,0,.12-.22A1.18,1.18,0,0,0,446.35,76.75Zm-.07,1.11-.06.11a1,1,0,0,1-.21.25l0,0-.17.1-.06,0-.17.05h-.18a1,1,0,0,1-.77-.37,1,1,0,0,1,.18-1.34,1,1,0,0,1,1.51,1A.43.43,0,0,1,446.28,77.86Z" style="fill:#ebebeb"></path><path d="M446.5,78a1.18,1.18,0,0,0-.15-1.21,1.21,1.21,0,0,0-1.91,1.47,1.19,1.19,0,0,0,1.3.42,1,1,0,0,0,.22-.09l.14.19.17-.11,0,0,.06-.06a1,1,0,0,0,.17-.18l-.15-.19A.68.68,0,0,0,446.5,78Zm-.31.09a.69.69,0,0,1-.11.13l-.06,0,0,0-.14.08,0,0a.75.75,0,0,1-.24.08,1,1,0,0,1-1-.36,1,1,0,0,1-.19-.72,1,1,0,0,1,.37-.64,1,1,0,0,1,.6-.2,1,1,0,0,1,.76.38.93.93,0,0,1,.17.83.77.77,0,0,1-.1.25Z" style="fill:#ebebeb"></path><polygon points="420.04 80.09 417.77 78 420.03 75.83 420.38 76.2 418.51 78 420.38 79.72 420.04 80.09" style="fill:#fff"></polygon><polygon points="425.51 75.83 427.78 77.92 425.52 80.09 425.17 79.72 427.04 77.92 425.17 76.2 425.51 75.83" style="fill:#fff"></polygon><path d="M671.84,80.51a3,3,0,0,1-.87.36,3,3,0,1,1,.87-.36Z" style="fill:#dbdbdb"></path><path d="M671.17,77.62a.92.92,0,1,1-.91-.92A.91.91,0,0,1,671.17,77.62Z" style="fill:#fff"></path><path d="M671.84,80.14v.37a3,3,0,0,1-.87.36,3,3,0,0,1-2.29-.36v-.37a1.58,1.58,0,1,1,3.16,0Z" style="fill:#fff"></path><path d="M434.55,80.67a3,3,0,1,1,2.93-3.34l-.53.07a2.42,2.42,0,1,0-.6,1.93l.4.36A3,3,0,0,1,434.55,80.67Z" style="fill:#fff"></path><polygon points="435.63 76.63 435.81 76.36 437.13 77.26 437.92 75.87 438.2 76.03 437.24 77.72 435.63 76.63" style="fill:#fff"></polygon><polygon points="491.96 56.22 444.62 56.22 442.47 65.44 494.12 65.44 491.96 56.22" style="fill:#ebebeb"></polygon><rect x="487.73" y="58.77" width="0.45" height="4.11" transform="translate(99.95 362.91) rotate(-45.01)" style="fill:#dbdbdb"></rect><rect x="487.73" y="58.77" width="0.45" height="4.11" transform="translate(185.99 -327.26) rotate(45.01)" style="fill:#dbdbdb"></rect><rect x="497.08" y="153" width="101.7" height="13.88" style="fill:#fff"></rect><path d="M599.28,167.38H496.58V152.5h102.7Zm-101.7-1h100.7V153.5H497.58Z" style="fill:#c7c7c7"></path><rect x="584.9" y="153" width="13.88" height="13.88" style="fill:#FF551E"></rect><path d="M596.24,163.83l-1.28,1-2.38-3.14-.87-1.14a1.89,1.89,0,0,0,.5-.28,2.12,2.12,0,0,0,.66-.86l.92,1.22Z" style="fill:#fff"></path><path d="M593.72,156.45a3.5,3.5,0,1,0-1.14,5.21,3.66,3.66,0,0,0,.49-.31,3.4,3.4,0,0,0,.72-.75A3.5,3.5,0,0,0,593.72,156.45Zm-1.51,3.79a1.89,1.89,0,0,1-.5.28,2.09,2.09,0,1,1,1.16-1.14A2.12,2.12,0,0,1,592.21,160.24Z" style="fill:#fff"></path><rect x="499.98" y="155.73" width="0.74" height="8.42" style="fill:#263238"></rect><rect x="497.08" y="172.29" width="23.49" height="7.44" style="fill:#c7c7c7"></rect><rect x="536.18" y="172.29" width="23.49" height="7.44" style="fill:#FF551E"></rect><rect x="575.58" y="172.29" width="23.49" height="7.44" style="fill:#c7c7c7"></rect><rect x="515.49" y="137.97" width="64.87" height="4.51" style="fill:#37474f"></rect><rect x="67.94" y="177.04" width="272.35" height="165.67" style="fill:#fff"></rect><path d="M340.29,342.71l-272.35.37h-.37v-.37L67.45,177v-.49h.49l272.35.2h.29V177Zm0,0L340,177l.29.3-272.35.2.5-.5-.12,165.67-.38-.37Z" style="fill:#dbdbdb"></path><rect x="67.44" y="164.92" width="273.22" height="12.13" style="fill:#c7c7c7"></rect><path d="M77.31,171a1.65,1.65,0,1,1-1.65-1.64A1.64,1.64,0,0,1,77.31,171Z" style="fill:#ebebeb"></path><path d="M84,171a1.65,1.65,0,1,1-1.64-1.64A1.64,1.64,0,0,1,84,171Z" style="fill:#fff"></path><path d="M90.73,171a1.64,1.64,0,1,1-1.64-1.64A1.63,1.63,0,0,1,90.73,171Z" style="fill:#dbdbdb"></path><rect x="335.46" y="177.04" width="4.83" height="165.67" style="fill:#dbdbdb"></rect><path d="M337.87,234.48h0a1.24,1.24,0,0,1-1.24-1.25v-54a1.24,1.24,0,0,1,1.24-1.25h0a1.25,1.25,0,0,1,1.25,1.25v54A1.25,1.25,0,0,1,337.87,234.48Z" style="fill:#a6a6a6"></path><rect x="156.02" y="170.59" width="0.4" height="3.68" style="fill:#a6a6a6"></rect><rect x="156.02" y="170.59" width="0.4" height="3.68" transform="translate(328.65 16.21) rotate(90)" style="fill:#a6a6a6"></rect><rect x="67.94" y="177.04" width="267.52" height="165.67" style="fill:#fff"></rect><path d="M335.46,342.71l-267.52.37h-.37v-.37L67.45,177v-.49h.49l267.52.2h.29V177Zm0,0L335.17,177l.29.3-267.52.2.5-.5-.12,165.67-.38-.37Z" style="fill:#dbdbdb"></path><rect x="67.94" y="177.04" width="267.52" height="25.56" style="fill:#ebebeb"></rect><rect x="98.59" y="186.45" width="220.41" height="6.23" style="fill:#fff"></rect><path d="M319.07,192.74H98.53v-6.36H319.07Zm-220.41-.13H318.94v-6.1H98.66Z" style="fill:#c7c7c7"></path><path d="M103.41,190.9l-.44.34-.68-.9-.14-.19L102,190h0a.75.75,0,0,0,.17-.1l0,0a1,1,0,0,0,.21-.25h0l.15.21.15.18Z" style="fill:#ebebeb"></path><path d="M102.72,190l-.15-.18a1,1,0,0,0,.12-.23l-.17-.23h0a.74.74,0,0,1,0,.14l-.06.11a1,1,0,0,1-.21.25l.06,0h0l.15.19.14.18.53.71-.06,0-.53-.7-.14-.19-.14-.19h0l0,0a.75.75,0,0,1-.17.1s0,0-.06,0l-.17.05h0l.16.2a1,1,0,0,0,.22-.09l.14.19.68.9.44-.34Z" style="fill:#ebebeb"></path><path d="M102.54,188.35a1.22,1.22,0,0,0-1.69-.22,1.21,1.21,0,0,0,1.08,2.11,1,1,0,0,0,.22-.09.75.75,0,0,0,.17-.1l0,0,.06-.05.16-.18a1,1,0,0,0,.12-.23A1.18,1.18,0,0,0,102.54,188.35Zm-.07,1.11-.06.11a1,1,0,0,1-.21.25l0,0a.75.75,0,0,1-.17.1s0,0-.06,0l-.17.05-.18,0a1,1,0,0,1-.77-.38,1,1,0,1,1,1.52-1.16.94.94,0,0,1,.17.81A.74.74,0,0,1,102.47,189.46Z" style="fill:#ebebeb"></path><path d="M102.69,189.56a1.18,1.18,0,0,0-.15-1.21,1.22,1.22,0,0,0-1.69-.22,1.21,1.21,0,0,0,1.08,2.11,1,1,0,0,0,.22-.09l.14.19a.62.62,0,0,0,.17-.11l0,0,.06-.06a1,1,0,0,0,.17-.18l-.15-.18A1,1,0,0,0,102.69,189.56Zm-.31.09a.74.74,0,0,1-.12.13l-.05.05s0,0,0,0L102,190h0a.75.75,0,0,1-.24.08,1,1,0,0,1-1-.36,1,1,0,0,1-.19-.72,1,1,0,0,1,.37-.64,1,1,0,0,1,.6-.2,1,1,0,0,1,.76.38.93.93,0,0,1,.17.83.77.77,0,0,1-.1.25A.43.43,0,0,1,102.38,189.65Z" style="fill:#ebebeb"></path><polygon points="76.23 191.69 73.96 189.6 76.22 187.43 76.57 187.8 74.7 189.6 76.57 191.32 76.23 191.69" style="fill:#fff"></polygon><polygon points="81.7 187.43 83.97 189.52 81.71 191.69 81.36 191.32 83.23 189.53 81.36 187.8 81.7 187.43" style="fill:#fff"></polygon><path d="M328,192.11a2.87,2.87,0,0,1-.86.37,3,3,0,1,1,.86-.37Z" style="fill:#dbdbdb"></path><circle cx="326.45" cy="189.22" r="0.91" style="fill:#fff"></circle><path d="M328,191.74v.37a2.87,2.87,0,0,1-.86.37,3,3,0,0,1-2.29-.37v-.37a1.58,1.58,0,1,1,3.15,0Z" style="fill:#fff"></path><path d="M90.74,192.27a3,3,0,1,1,2.93-3.33l-.53.07a2.4,2.4,0,1,0-.6,1.93l.4.36A3,3,0,0,1,90.74,192.27Z" style="fill:#fff"></path><polygon points="91.82 188.24 92 187.97 93.32 188.86 94.11 187.48 94.39 187.64 93.43 189.32 91.82 188.24" style="fill:#fff"></polygon><polygon points="148.15 167.82 100.81 167.82 98.66 177.04 150.31 177.04 148.15 167.82" style="fill:#ebebeb"></polygon><rect x="143.92" y="170.38" width="0.45" height="4.11" transform="translate(-79.71 152.39) rotate(-44.99)" style="fill:#dbdbdb"></rect><rect x="143.92" y="170.38" width="0.45" height="4.11" transform="translate(164.15 -51.42) rotate(45)" style="fill:#dbdbdb"></rect><rect x="153.27" y="264.6" width="101.7" height="13.88" style="fill:#fff"></rect><path d="M255.47,279H152.77V264.1h102.7Zm-101.7-1h100.7V265.1H153.77Z" style="fill:#c7c7c7"></path><rect x="241.09" y="264.6" width="13.88" height="13.88" style="fill:#FF551E"></rect><path d="M252.43,275.43l-1.28,1-2.38-3.13-.87-1.15a2.06,2.06,0,0,0,.5-.28,2.16,2.16,0,0,0,.66-.85l.92,1.21Z" style="fill:#fff"></path><path d="M249.9,268.05a3.5,3.5,0,1,0-1.13,5.22,3.74,3.74,0,0,0,.49-.32,3.4,3.4,0,0,0,.72-.75A3.48,3.48,0,0,0,249.9,268.05Zm-1.5,3.79a2.06,2.06,0,0,1-.5.28,2.08,2.08,0,1,1,1.16-1.13A2.16,2.16,0,0,1,248.4,271.84Z" style="fill:#fff"></path><rect x="156.17" y="267.33" width="0.74" height="8.42" style="fill:#263238"></rect><rect x="153.27" y="283.89" width="23.49" height="7.44" style="fill:#c7c7c7"></rect><rect x="192.37" y="283.89" width="23.49" height="7.44" style="fill:#FF551E"></rect><rect x="231.77" y="283.89" width="23.49" height="7.44" style="fill:#c7c7c7"></rect><rect x="171.68" y="249.58" width="64.87" height="4.51" style="fill:#37474f"></rect></g><g id="freepik--Plant--inject-7"><path d="M657.42,218.35s-21.2-3-16.25-28.57C641.17,189.78,664.87,195.1,657.42,218.35Z" style="fill:#FF551E"></path><path d="M657.42,218.35s-21.2-3-16.25-28.57C641.17,189.78,664.87,195.1,657.42,218.35Z" style="opacity:0.1"></path><path d="M656.35,213c-.41-1.29-.9-2.56-1.44-3.81l-.06-.49c0-.35-.06-.7-.08-1-.06-.77-.11-1.53-.16-2.3-.09-1.53-.19-3.06-.21-4.59a.07.07,0,0,0-.13,0c0,1.54,0,3.07,0,4.6,0,.77.07,1.53.12,2.29,0,.17,0,.34,0,.51a45.2,45.2,0,0,0-4.26-7.27c-.72-1-1.49-2-2.31-2.94s-1.74-1.89-2.6-2.84c0-.07-.15,0-.09.09a38.59,38.59,0,0,1,4.09,5.43q1,1.47,1.83,3l-.2-.08-.75-.31-1.73-.65L645,201.32c-.07,0-.12.09,0,.12,1.13.45,2.24.92,3.36,1.41l1.64.7.83.34a2.2,2.2,0,0,0,.56.2c.43.77.85,1.54,1.24,2.33a53.8,53.8,0,0,1,2.59,6.11l.15.44a11.47,11.47,0,0,0-1.73-.84l-2.2-1c-1.48-.69-3-1.38-4.39-2.18-.07,0-.13.07-.06.11,1.46.8,2.88,1.64,4.34,2.43.73.4,1.47.79,2.21,1.15a7.35,7.35,0,0,0,2,.8,25.24,25.24,0,0,1,1.39,6c.23,2.9.21,5.81.27,8.72a0,0,0,0,0,.08,0c.21-2.63.33-5.29.34-7.93A22.89,22.89,0,0,0,656.35,213Z" style="fill:#263238"></path><path d="M653.09,198a24.31,24.31,0,0,0-.21,4.51,0,0,0,0,0,.06,0c.09-1.5.1-3,.27-4.48C653.22,197.9,653.1,197.87,653.09,198Z" style="fill:#263238"></path><path d="M647,199.23a16,16,0,0,1-2.72-1.34c-.07,0-.14.07-.07.11a10.31,10.31,0,0,0,2.76,1.32S647.08,199.25,647,199.23Z" style="fill:#263238"></path><path d="M658.1,259c0-2.34-.06-4.69-.09-7,0-7.78-.11-15.57-.25-23.35q-.16-9.27-.43-18.53a.09.09,0,0,0-.05-.08l0-5.06s0-.06-.1-.06-.1,0-.1.06l0,5.07a.09.09,0,0,0,0,.08c-.31,11-.59,22-.66,33,0,2.23,0,4.47,0,6.7-.07,7.17-.11,14.35-.08,21.52,0,1.14,0,2.28,0,3.42,0,6.56.06,13.12.07,19.68,0,.35.39.53.8.55s1-.17,1-.58c0-7.23.05-14.47.05-21.7C658.12,268.11,658.14,263.55,658.1,259Z" style="fill:#263238"></path><path d="M649.25,251.87s-10.2-7.56-19.89-2.45-11.19,24.79-11.19,24.79,14.21,2,23.16-6.49C650,259.51,649.25,251.87,649.25,251.87Z" style="fill:#FF551E"></path><path d="M652,252.34a12.13,12.13,0,0,0-5.91-.77,7.57,7.57,0,0,0-1.25-.13l-1.44-.1c-1-.08-2-.14-3-.21-2-.16-4-.28-6-.48-.08,0-.09.12,0,.13,2,.25,4,.53,6,.74,1,.1,2,.21,3.08.28l.75.07c-.31.07-.61.14-.91.23a24.3,24.3,0,0,0-4.62,1.87c-.8.15-1.6.37-2.39.56-1.26.3-2.52.62-3.77.95-2.48.65-4.93,1.38-7.39,2.09a.07.07,0,0,0,0,.13c2.45-.6,4.92-1.16,7.38-1.74l3.59-.86.94-.22a29.64,29.64,0,0,0-7.25,6.31,38.93,38.93,0,0,0-5,7.94c0,.07.07.15.11.07a38.34,38.34,0,0,1,6.1-8c-.05.13-.09.27-.14.41-.19.6-.37,1.2-.56,1.8-.38,1.2-.76,2.4-1.12,3.61,0,.08.09.1.12,0,.43-1.17.84-2.34,1.25-3.51l.61-1.72.3-.9.1-.27a35.09,35.09,0,0,1,3.62-3.08,27.41,27.41,0,0,1,5.41-3.11c0,.18-.06.36-.1.52l-.3,1.4c-.2,1-.39,1.93-.58,2.9-.38,2-.62,4-1,6,0,.08.11.11.13,0,.46-2,1-3.94,1.49-5.93.22-1,.44-2,.65-3,.1-.46.19-.93.28-1.4a7.14,7.14,0,0,0,.15-.78c.18-.07.36-.16.55-.22a16.08,16.08,0,0,1,8.49-1.17,8.36,8.36,0,0,1,6.14,4.92c.09.22.44.09.39-.14A7.89,7.89,0,0,0,652,252.34Z" style="fill:#263238"></path><path d="M636.41,260.74c-.29,1.29-.57,2.59-.86,3.88a28.45,28.45,0,0,0-.71,3.77c0,.05.07.05.08,0a29,29,0,0,0,.87-3.8l.75-3.83C636.55,260.69,636.43,260.66,636.41,260.74Z" style="fill:#263238"></path><path d="M626.55,264c-1.3.66-2.56,1.41-3.92,1.94a.07.07,0,1,0,0,.12,43.49,43.49,0,0,0,3.9-2S626.58,264,626.55,264Z" style="fill:#263238"></path><path d="M651.54,238s-12.47.8-18.27-7.42-4.49-20-4.49-20,13.09,1.59,18.29,7.49S651.54,238,651.54,238Z" style="fill:#FF551E"></path><path d="M657.39,250.29c-.43-1.33-1-2.65-1.47-4s-1-2.5-1.55-3.73a76.85,76.85,0,0,0-3.74-7.35c-.88-1.51-1.82-3-2.79-4.43,0-.23-.07-.45-.1-.67-.06-.38-.11-.77-.17-1.16-.13-.78-.26-1.57-.4-2.36-.28-1.72-.64-3.43-.91-5.15,0-.08-.14-.08-.13,0,.25,1.7.42,3.41.66,5.11.12.84.23,1.68.35,2.51.05.3.1.61.14.91a88.12,88.12,0,0,0-6.16-8c-.3-.35-.61-.68-.91-1,0-.1-.08-.19-.12-.29l-.27-.71-.54-1.49c-.35-1-.66-2-.93-3,0-.08-.14,0-.12,0,.25,1,.52,2,.81,3,.15.49.31,1,.48,1.45l.09.24c-1.59-1.74-3.25-3.41-4.93-5.06a.06.06,0,0,0-.09.09,90.81,90.81,0,0,1,8.83,10.82,7.73,7.73,0,0,0-.92-.23c-1-.19-1.93-.33-2.9-.45-2-.26-4.06-.51-6.08-.83-.08,0-.11.11,0,.12,1.93.38,3.84.82,5.76,1.26.91.21,1.82.38,2.73.56a18.28,18.28,0,0,1,2.19.63l.61.86c.91,1.33,1.79,2.69,2.65,4.06l-1.27-.25c-1-.19-1.93-.36-2.9-.52-1.9-.31-3.8-.64-5.68-1.07a.07.07,0,0,0,0,.13c1.9.44,3.79,1,5.68,1.47.91.24,1.84.47,2.76.67l1.38.3a3.09,3.09,0,0,0,.56.09q2.75,4.44,5.12,9.06,1,2,2,4.11c.67,1.41,1.24,2.86,1.85,4.3C657,250.72,657.49,250.61,657.39,250.29Z" style="fill:#263238"></path><path d="M644.63,221.64c-.24-1.19-.49-2.37-.75-3.56,0-.08-.14,0-.13,0,.24,1.17.46,2.34.68,3.51s.38,2.36.7,3.49c0,0,0,0,0,0A24,24,0,0,0,644.63,221.64Z" style="fill:#263238"></path><path d="M637.36,221.29c-.58-.28-1.19-.52-1.79-.75l-1-.37-.48-.19a2.5,2.5,0,0,1-.53-.23c-.09-.07-.15.09-.06.11a2.52,2.52,0,0,1,.54.21l.47.21.91.41a17.17,17.17,0,0,0,1.84.73A.07.07,0,0,0,637.36,221.29Z" style="fill:#263238"></path><path d="M664.3,228.19s7.54-14.09,19-16.28,18.51,9.63,18.51,9.63-8.38,10.69-18.91,12.56S664.3,228.19,664.3,228.19Z" style="fill:#FF551E"></path><path d="M691,218.23a30.86,30.86,0,0,0-9,.11l.51-.28c.86-.43,1.7-.87,2.55-1.31,1.76-.92,3.55-1.89,5.39-2.63a.07.07,0,1,0-.05-.12c-1.8.84-3.66,1.54-5.46,2.37-.9.41-1.79.84-2.66,1.31-.57.3-1.2.58-1.75.94a32.09,32.09,0,0,0-7.3,2.42l1.44-1.56c1.07-1.17,2.12-2.4,3.29-3.47.07,0,0-.14-.09-.09-1.2,1.09-2.47,2.1-3.63,3.24-.57.55-1.11,1.12-1.64,1.71-.26.29-.52.59-.77.9a30.25,30.25,0,0,0-15.39,20.78c0,.08.1.13.12,0A34.62,34.62,0,0,1,665,228.32a33.14,33.14,0,0,1,15.38-8.9,33.54,33.54,0,0,1,10.61-1A.12.12,0,0,0,691,218.23Z" style="fill:#263238"></path><path d="M701.83,221.54s-8.38,10.7-18.91,12.56c-8,1.42-14.65-2.77-17.33-4.83l-.58-1s5.43-4.58,15.71-7.23S701.83,221.54,701.83,221.54Z" style="opacity:0.1"></path><path d="M684.35,213.2c-.87.54-1.74,1.07-2.55,1.69a15.68,15.68,0,0,0-2.21,2,.07.07,0,0,0,.09.1c.77-.67,1.53-1.33,2.32-1.95a24.38,24.38,0,0,1,2.42-1.75C684.49,213.27,684.42,213.16,684.35,213.2Z" style="fill:#263238"></path><path d="M690.65,215.59c-.43.18-.86.33-1.29.51l-1.28.53c-.09,0,0,.18,0,.15l1.28-.52,1.27-.55C690.76,215.68,690.72,215.56,690.65,215.59Z" style="fill:#263238"></path><path d="M662.79,245.92s2,14,12.53,18.88,23.33,0,23.33,0S693.61,234.55,662.79,245.92Z" style="fill:#FF551E"></path><path d="M691.41,255.7c-1-.11-1.94-.27-2.9-.45-.47-.09-.94-.17-1.41-.27l-.74-.14c-.28-.27-.56-.54-.85-.79a42,42,0,0,0-6.43-4.66,35,35,0,0,0-3.85-2h.2l3.46.15c2.31.1,4.61.15,6.92.3.08,0,.08-.12,0-.13-2.31-.15-4.61-.41-6.92-.61l-3.37-.3-1.73-.15-.44,0c-.6-.23-1.2-.44-1.82-.63a16.44,16.44,0,0,0-8.9-.49c-2.64.68-5.28,2.41-6,5.2,0,.1.13.16.17.06,1-2.33,3.57-3.5,5.91-4a14.08,14.08,0,0,1,4.76-.1,10.61,10.61,0,0,0,.53,2.12c.29,1,.57,2,.87,3,.6,2,1.25,3.91,1.84,5.87a.06.06,0,0,0,.12,0c-.49-2-.9-4-1.37-5.91l-.72-2.89a15.47,15.47,0,0,0-.53-2,24.63,24.63,0,0,1,2.73.64,41.32,41.32,0,0,1,4.77,1.75c.15,1,.37,2,.6,3,.29,1.24.61,2.46,1,3.67,0,.07.13,0,.12,0s0-.15-.05-.23h0c-.24-1.14-.49-2.28-.73-3.42-.2-.92-.37-1.85-.57-2.77,1.3.59,2.59,1.23,3.83,1.94,0,.29.09.58.13.84.08.48.17,1,.25,1.43.2,1.08.42,2.16.68,3.22a49.32,49.32,0,0,0,1.8,6.08s0,.06,0,.08l.06.07s.12,0,.11-.06c-.49-2.08-1-4.13-1.5-6.21-.22-1-.45-2.08-.66-3.12-.11-.52-.2-1-.3-1.56,0-.15,0-.31-.07-.47a44.06,44.06,0,0,1,4.09,2.73,44.72,44.72,0,0,1,6.27,5.72c.07.08.22,0,.15-.13-.8-1.05-1.6-2.08-2.5-3.05-.53-.57-1.08-1.12-1.64-1.65l.17,0,1.48.22c1,.13,1.95.23,2.93.34C691.46,255.84,691.49,255.71,691.41,255.7Z" style="fill:#263238"></path><path d="M684,260.44h0l-.06-.36c0-.16-.11-.3-.13-.46h0c-.22-.94-.4-1.88-.57-2.82,0-.07-.12-.05-.11,0a11.17,11.17,0,0,0,.8,3.65s.08,0,.07,0Z" style="fill:#263238"></path><path d="M675.22,260.22a.06.06,0,0,0-.06-.06c-.3-1.24-.58-2.48-.84-3.73-.13-.65-.27-1.3-.39-2-.07-.36-.14-.71-.2-1.06a3,3,0,0,0-.22-.91.07.07,0,0,0-.12,0,6,6,0,0,0,.26,1.87c.13.68.26,1.37.41,2,.31,1.38.65,2.76,1,4.11,0,.08.15.06.14,0Z" style="fill:#263238"></path><path d="M690.45,251.67c-1.92-.26-3.84-.54-5.76-.77-.08,0-.12.11,0,.13,1.91.28,3.84.52,5.76.77C690.5,251.81,690.53,251.69,690.45,251.67Z" style="fill:#263238"></path><path d="M657.41,213.14S651,184.92,681.3,173.5C681.3,173.5,689.7,210.64,657.41,213.14Z" style="fill:#FF551E"></path><path d="M664,197.13l.33-.2,1.71-1,3.52-2c2.31-1.3,4.6-2.64,6.93-3.91.07,0,0-.15-.07-.11-2.33,1.27-4.71,2.46-7.06,3.7l-3.47,1.84-1.42.75c1-1.92,2.09-3.8,3.28-5.61,1.58-2.42,3.32-4.72,5.13-7a.1.1,0,0,0-.15-.14,48.41,48.41,0,0,0-7,8.6c0-.1,0-.2,0-.3,0-.7.06-1.4.07-2.1,0-1.38,0-2.76,0-4.14,0-.08-.12-.08-.13,0-.05,1.35-.22,2.7-.29,4.06,0,.67-.07,1.35-.09,2,0,.36-.05.78,0,1.18-.63,1-1.23,2-1.79,3a51.11,51.11,0,0,0-2.72,5.68c0-.7-.07-1.41-.11-2.11-.09-1.54-.28-3.08-.34-4.63,0-.08-.13-.08-.13,0,0,1.55,0,3.1,0,4.64,0,.77,0,1.55.09,2.32l.06.86a49.91,49.91,0,0,0-2.29,7.76,83.79,83.79,0,0,0-1.13,8.52s0,0,0,0a45.87,45.87,0,0,1,1.61-7.6c.37-1.33.77-2.66,1.2-4,1.26-.6,2.47-1.34,3.68-2s2.54-1.39,3.81-2.09c2.53-1.38,5.05-2.8,7.67-4,.07,0,0-.15-.07-.11-2.65,1.19-5.31,2.33-7.91,3.64-1.29.65-2.56,1.34-3.82,2-1,.59-2.13,1.19-3.14,1.87.29-.88.6-1.75.94-2.62C661.76,201.73,662.8,199.4,664,197.13Z" style="fill:#263238"></path><path d="M661.4,190.68c0-.08-.14-.08-.13,0,.11,1.61.16,3.22.33,4.83,0,.09.15.09.14,0C661.69,193.89,661.52,192.29,661.4,190.68Z" style="fill:#263238"></path><path d="M675.93,196.07c-1.89.76-3.81,1.49-5.7,2.28-.05,0,0,.11,0,.09,1.92-.72,3.81-1.5,5.71-2.25A.06.06,0,1,0,675.93,196.07Z" style="fill:#263238"></path><path d="M678.82,183.05a48.33,48.33,0,0,0-5.4,2.9.08.08,0,0,0,.09.13c1.76-1,3.55-2,5.37-2.92C679,183.13,678.89,183,678.82,183.05Z" style="fill:#263238"></path><rect x="634.63" y="274.17" width="43.73" height="46.09" style="fill:#455a64"></rect><rect x="631.62" y="290.47" width="2.24" height="78.95" style="fill:#263238"></rect><rect x="678.9" y="290.47" width="2.24" height="78.95" style="fill:#263238"></rect><rect x="656.45" y="290.47" width="2.24" height="78.95" style="fill:#263238"></rect><rect x="632.74" y="317.3" width="47.28" height="6.38" style="fill:#263238"></rect></g><g id="freepik--Floor--inject-7"><polygon points="50.72 369.43 131.79 369.18 212.86 369.1 375 368.93 537.14 369.1 618.21 369.18 699.28 369.43 618.21 369.67 537.14 369.76 375 369.93 212.86 369.76 131.79 369.67 50.72 369.43" style="fill:#263238"></polygon></g><g id="freepik--Shadow--inject-7"><ellipse cx="375" cy="426.9" rx="281.25" ry="24.78" style="fill:#ebebeb"></ellipse></g><g id="freepik--Screen--inject-7"><rect x="121.95" y="109.31" width="506.1" height="307.86" style="fill:#fff"></rect><path d="M628.05,417.17l-506.1.37h-.37v-.37l-.13-307.86v-.5h.5l506.1.21h.29v.29Zm0,0-.29-307.86.29.29-506.1.21.5-.5-.13,307.86-.37-.37Z" style="fill:#dbdbdb"></path><rect x="121.95" y="86.77" width="506.1" height="22.54" style="fill:#263238"></rect><path d="M139.34,98A3.06,3.06,0,1,1,136.29,95,3.05,3.05,0,0,1,139.34,98Z" style="fill:#c7c7c7"></path><path d="M151.82,98a3.06,3.06,0,1,1-3-3.05A3.06,3.06,0,0,1,151.82,98Z" style="fill:#fff"></path><path d="M164.3,98A3.06,3.06,0,1,1,161.24,95,3.06,3.06,0,0,1,164.3,98Z" style="fill:#FF551E"></path><rect x="619.07" y="109.31" width="8.98" height="307.86" style="fill:#dbdbdb"></rect><path d="M623.56,216h0a2.32,2.32,0,0,1-2.32-2.32V113.43a2.32,2.32,0,0,1,2.32-2.32h0a2.31,2.31,0,0,1,2.31,2.32V213.72A2.31,2.31,0,0,1,623.56,216Z" style="fill:#a6a6a6"></path><rect x="475.39" y="96.92" width="0.83" height="7.64" style="fill:#455a64"></rect><rect x="475.39" y="96.92" width="0.83" height="7.64" transform="translate(576.55 -375.06) rotate(90)" style="fill:#455a64"></rect></g><g id="freepik--Tabs--inject-7"><rect x="121.95" y="109.31" width="497.12" height="307.86" style="fill:#fff"></rect><path d="M619.07,417.17,122,417.54h-.37v-.37l-.13-307.86v-.5h.5l497.12.21h.3v.29Zm0,0-.29-307.86.29.3-497.12.2.5-.5-.13,307.86-.37-.37Z" style="fill:#dbdbdb"></path><rect x="121.95" y="109.31" width="497.12" height="47.5" style="fill:#ebebeb"></rect><rect x="178.9" y="126.78" width="409.59" height="11.58" style="fill:#fff"></rect><path d="M588.61,138.48H178.78V126.66H588.61ZM179,138.24H588.37V126.9H179Z" style="fill:#c7c7c7"></path><path d="M187.86,135.06l-.82.63L185.78,134l-.26-.35-.28-.36h0a1.61,1.61,0,0,0,.31-.19.15.15,0,0,0,.06-.05,2,2,0,0,0,.4-.46h0l.29.38.27.35Z" style="fill:#ebebeb"></path><path d="M186.57,133.34l-.27-.35a1.68,1.68,0,0,0,.22-.42l-.31-.42,0,0a1.43,1.43,0,0,1-.09.27,1,1,0,0,1-.1.21,2,2,0,0,1-.4.46l.12-.1v0l.26.34.27.35,1,1.31-.12.09-1-1.29-.27-.35-.26-.35,0,0a.15.15,0,0,1-.06.05,1.61,1.61,0,0,1-.31.19l-.11,0-.32.1h0l.29.38a2.47,2.47,0,0,0,.42-.17l.26.35,1.26,1.67.82-.63Z" style="fill:#ebebeb"></path><path d="M186.24,130.33a2.24,2.24,0,1,0-3.55,2.73,2.22,2.22,0,0,0,2.41.78,2.47,2.47,0,0,0,.42-.17,1.89,1.89,0,0,0,.3-.19s.05,0,.06,0l.11-.11a2,2,0,0,0,.31-.33,1.68,1.68,0,0,0,.22-.42A2.22,2.22,0,0,0,186.24,130.33Zm-.14,2.06a1,1,0,0,1-.1.21,2,2,0,0,1-.4.46.15.15,0,0,1-.06.05,1.61,1.61,0,0,1-.31.19l-.11,0-.32.1-.33,0a1.78,1.78,0,1,1,1.72-1.35A1.43,1.43,0,0,1,186.1,132.39Z" style="fill:#ebebeb"></path><path d="M186.52,132.57a2.24,2.24,0,1,0-1.42,1.27,2.47,2.47,0,0,0,.42-.17l.26.35a1.49,1.49,0,0,0,.31-.2l.06,0a.57.57,0,0,0,.11-.11,2,2,0,0,0,.31-.33l-.27-.35A1.68,1.68,0,0,0,186.52,132.57Zm-.58.17a1.21,1.21,0,0,1-.21.24l-.11.1-.06,0-.25.16-.07,0a1,1,0,0,1-.43.15,1.77,1.77,0,0,1-1.78-.66,1.84,1.84,0,0,1-.36-1.34,1.87,1.87,0,0,1,.69-1.19,1.81,1.81,0,0,1,2.85,1.88,1.89,1.89,0,0,1-.2.46S186,132.7,185.94,132.74Z" style="fill:#ebebeb"></path><polygon points="137.34 136.53 133.12 132.65 137.33 128.62 137.99 129.3 134.5 132.64 137.98 135.84 137.34 136.53" style="fill:#fff"></polygon><polygon points="147.52 128.61 151.74 132.49 147.53 136.53 146.87 135.85 150.36 132.5 146.88 129.3 147.52 128.61" style="fill:#fff"></polygon><path d="M605.25,137.32a5.42,5.42,0,0,1-1.6.67,5.51,5.51,0,0,1-4.26-.68,5.57,5.57,0,1,1,5.86,0Z" style="fill:#dbdbdb"></path><path d="M604,131.93a1.7,1.7,0,1,1-1.7-1.69A1.7,1.7,0,0,1,604,131.93Z" style="fill:#fff"></path><path d="M605.25,136.62v.7a5.42,5.42,0,0,1-1.6.67,5.51,5.51,0,0,1-4.26-.68v-.69a2.93,2.93,0,1,1,5.86,0Z" style="fill:#fff"></path><path d="M164.32,137.61a5.49,5.49,0,1,1,5.44-6.2l-1,.13a4.49,4.49,0,1,0-1.12,3.59l.74.67A5.49,5.49,0,0,1,164.32,137.61Z" style="fill:#fff"></path><polygon points="166.32 130.11 166.65 129.61 169.1 131.27 170.58 128.7 171.1 129 169.31 132.12 166.32 130.11" style="fill:#fff"></polygon><polygon points="459.49 92.17 371.51 92.17 367.51 109.31 463.49 109.31 459.49 92.17" style="fill:#ebebeb"></polygon><rect x="451.62" y="96.92" width="0.83" height="7.64" transform="translate(61.14 349.11) rotate(-45)" style="fill:#dbdbdb"></rect><rect x="451.62" y="96.92" width="0.83" height="7.64" transform="translate(203.6 -290.11) rotate(45)" style="fill:#dbdbdb"></rect><rect x="280.51" y="272.02" width="188.98" height="25.78" style="fill:#fff"></rect><path d="M470,298.31H280V271.52H470Zm-189-1H469V272.52H281Z" style="fill:#c7c7c7"></path><rect x="443.71" y="272.02" width="25.79" height="25.78" style="fill:#FF551E"></rect><path d="M464.77,292.14,462.39,294,458,288.12,456.37,286a3.67,3.67,0,0,0,.92-.52,3.83,3.83,0,0,0,1.22-1.59l1.72,2.26Z" style="fill:#fff"></path><path d="M460.09,278.43a6.5,6.5,0,1,0-2.11,9.69,7.24,7.24,0,0,0,.9-.58,6.62,6.62,0,0,0,1.35-1.4A6.5,6.5,0,0,0,460.09,278.43Zm-2.8,7a3.67,3.67,0,0,1-.92.52,3.89,3.89,0,1,1,2.14-2.11A3.83,3.83,0,0,1,457.29,285.47Z" style="fill:#fff"></path><rect x="285.9" y="277.09" width="1.38" height="15.65" style="fill:#263238"></rect><rect x="280.51" y="307.86" width="43.65" height="13.83" style="fill:#c7c7c7"></rect><rect x="353.17" y="307.86" width="43.65" height="13.83" style="fill:#FF551E"></rect><rect x="426.38" y="307.86" width="43.65" height="13.83" style="fill:#c7c7c7"></rect><rect x="314.72" y="244.1" width="120.55" height="8.37" style="fill:#37474f"></rect><rect x="121.95" y="109.31" width="497.12" height="307.86" style="fill:#fff"></rect><path d="M619.07,417.17,122,417.54h-.37v-.37l-.13-307.86v-.5h.5l497.12.21h.3v.29Zm0,0-.29-307.86.29.3-497.12.2.5-.5-.13,307.86-.37-.37Z" style="fill:#dbdbdb"></path><rect x="121.95" y="109.31" width="497.12" height="47.5" style="fill:#455a64"></rect><rect x="178.9" y="126.78" width="409.59" height="11.58" style="fill:#fff"></rect><path d="M588.61,138.48H178.78V126.66H588.61ZM179,138.24H588.37V126.9H179Z" style="fill:#c7c7c7"></path><path d="M187.86,135.06l-.82.63L185.78,134l-.26-.35-.28-.36h0a1.61,1.61,0,0,0,.31-.19.15.15,0,0,0,.06-.05,2,2,0,0,0,.4-.46h0l.29.38.27.35Z" style="fill:#ebebeb"></path><path d="M186.57,133.34l-.27-.35a1.68,1.68,0,0,0,.22-.42l-.31-.42,0,0a1.43,1.43,0,0,1-.09.27,1,1,0,0,1-.1.21,2,2,0,0,1-.4.46l.12-.1v0l.26.34.27.35,1,1.31-.12.09-1-1.29-.27-.35-.26-.35,0,0a.15.15,0,0,1-.06.05,1.61,1.61,0,0,1-.31.19l-.11,0-.32.1h0l.29.38a2.47,2.47,0,0,0,.42-.17l.26.35,1.26,1.67.82-.63Z" style="fill:#ebebeb"></path><path d="M186.24,130.33a2.24,2.24,0,1,0-3.55,2.73,2.22,2.22,0,0,0,2.41.78,2.47,2.47,0,0,0,.42-.17,1.89,1.89,0,0,0,.3-.19s.05,0,.06,0l.11-.11a2,2,0,0,0,.31-.33,1.68,1.68,0,0,0,.22-.42A2.22,2.22,0,0,0,186.24,130.33Zm-.14,2.06a1,1,0,0,1-.1.21,2,2,0,0,1-.4.46.15.15,0,0,1-.06.05,1.61,1.61,0,0,1-.31.19l-.11,0-.32.1-.33,0a1.78,1.78,0,1,1,1.72-1.35A1.43,1.43,0,0,1,186.1,132.39Z" style="fill:#ebebeb"></path><path d="M186.52,132.57a2.24,2.24,0,1,0-1.42,1.27,2.47,2.47,0,0,0,.42-.17l.26.35a1.49,1.49,0,0,0,.31-.2l.06,0a.57.57,0,0,0,.11-.11,2,2,0,0,0,.31-.33l-.27-.35A1.68,1.68,0,0,0,186.52,132.57Zm-.58.17a1.21,1.21,0,0,1-.21.24l-.11.1-.06,0-.25.16-.07,0a1,1,0,0,1-.43.15,1.77,1.77,0,0,1-1.78-.66,1.84,1.84,0,0,1-.36-1.34,1.87,1.87,0,0,1,.69-1.19,1.81,1.81,0,0,1,2.85,1.88,1.89,1.89,0,0,1-.2.46S186,132.7,185.94,132.74Z" style="fill:#ebebeb"></path><polygon points="137.34 136.53 133.12 132.65 137.33 128.62 137.99 129.3 134.5 132.64 137.98 135.84 137.34 136.53" style="fill:#fff"></polygon><polygon points="147.52 128.61 151.74 132.49 147.53 136.53 146.87 135.85 150.36 132.5 146.88 129.3 147.52 128.61" style="fill:#fff"></polygon><path d="M605.25,137.32a5.42,5.42,0,0,1-1.6.67,5.51,5.51,0,0,1-4.26-.68,5.57,5.57,0,1,1,5.86,0Z" style="fill:#dbdbdb"></path><path d="M604,131.93a1.7,1.7,0,1,1-1.7-1.69A1.7,1.7,0,0,1,604,131.93Z" style="fill:#fff"></path><path d="M605.25,136.62v.7a5.42,5.42,0,0,1-1.6.67,5.51,5.51,0,0,1-4.26-.68v-.69a2.93,2.93,0,1,1,5.86,0Z" style="fill:#fff"></path><path d="M164.32,137.61a5.49,5.49,0,1,1,5.44-6.2l-1,.13a4.49,4.49,0,1,0-1.12,3.59l.74.67A5.49,5.49,0,0,1,164.32,137.61Z" style="fill:#fff"></path><polygon points="166.32 130.11 166.65 129.61 169.1 131.27 170.58 128.7 171.1 129 169.31 132.12 166.32 130.11" style="fill:#fff"></polygon><polygon points="271 92.17 183.02 92.17 179.02 109.31 275 109.31 271 92.17" style="fill:#455a64"></polygon><rect x="263.13" y="96.92" width="0.83" height="7.64" transform="translate(5.94 215.84) rotate(-45)" style="fill:#263238"></rect><rect x="263.13" y="96.92" width="0.83" height="7.64" transform="translate(148.4 -156.84) rotate(45)" style="fill:#263238"></rect><rect x="280.51" y="272.02" width="188.98" height="25.78" style="fill:#fff"></rect><path d="M470,298.31H280V271.52H470Zm-189-1H469V272.52H281Z" style="fill:#c7c7c7"></path><rect x="443.71" y="272.02" width="25.79" height="25.78" style="fill:#FF551E"></rect><path d="M464.77,292.14,462.39,294,458,288.12,456.37,286a3.67,3.67,0,0,0,.92-.52,3.83,3.83,0,0,0,1.22-1.59l1.72,2.26Z" style="fill:#fff"></path><path d="M460.09,278.43a6.5,6.5,0,1,0-2.11,9.69,7.24,7.24,0,0,0,.9-.58,6.62,6.62,0,0,0,1.35-1.4A6.5,6.5,0,0,0,460.09,278.43Zm-2.8,7a3.67,3.67,0,0,1-.92.52,3.89,3.89,0,1,1,2.14-2.11A3.83,3.83,0,0,1,457.29,285.47Z" style="fill:#fff"></path><rect x="285.9" y="277.09" width="1.38" height="15.65" style="fill:#263238"></rect><rect x="280.51" y="307.86" width="43.65" height="13.83" style="fill:#c7c7c7"></rect><rect x="353.17" y="307.86" width="43.65" height="13.83" style="fill:#FF551E"></rect><rect x="426.38" y="307.86" width="43.65" height="13.83" style="fill:#c7c7c7"></rect><rect x="314.72" y="244.1" width="120.55" height="8.37" style="fill:#37474f"></rect><rect x="121.95" y="109.31" width="497.12" height="307.86" style="fill:#fff"></rect><path d="M619.07,417.17,122,417.54h-.37v-.37l-.13-307.86v-.5h.5l497.12.21h.3v.29Zm0,0-.29-307.86.29.3-497.12.2.5-.5-.13,307.86-.37-.37Z" style="fill:#dbdbdb"></path><rect x="121.95" y="109.31" width="497.12" height="47.5" style="fill:#FF551E"></rect><rect x="178.9" y="126.78" width="409.59" height="11.58" style="fill:#fff"></rect><path d="M588.61,138.48H178.78V126.66H588.61ZM179,138.24H588.37V126.9H179Z" style="fill:#c7c7c7"></path><path d="M187.86,135.06l-.82.63L185.78,134l-.26-.35-.28-.36h0a1.61,1.61,0,0,0,.31-.19.15.15,0,0,0,.06-.05,2,2,0,0,0,.4-.46h0l.29.38.27.35Z" style="fill:#ebebeb"></path><path d="M186.57,133.34l-.27-.35a1.68,1.68,0,0,0,.22-.42l-.31-.42,0,0a1.43,1.43,0,0,1-.09.27,1,1,0,0,1-.1.21,2,2,0,0,1-.4.46l.12-.1v0l.26.34.27.35,1,1.31-.12.09-1-1.29-.27-.35-.26-.35,0,0a.15.15,0,0,1-.06.05,1.61,1.61,0,0,1-.31.19l-.11,0-.32.1h0l.29.38a2.47,2.47,0,0,0,.42-.17l.26.35,1.26,1.67.82-.63Z" style="fill:#ebebeb"></path><path d="M186.24,130.33a2.24,2.24,0,1,0-3.55,2.73,2.22,2.22,0,0,0,2.41.78,2.47,2.47,0,0,0,.42-.17,1.89,1.89,0,0,0,.3-.19s.05,0,.06,0l.11-.11a2,2,0,0,0,.31-.33,1.68,1.68,0,0,0,.22-.42A2.22,2.22,0,0,0,186.24,130.33Zm-.14,2.06a1,1,0,0,1-.1.21,2,2,0,0,1-.4.46.15.15,0,0,1-.06.05,1.61,1.61,0,0,1-.31.19l-.11,0-.32.1-.33,0a1.78,1.78,0,1,1,1.72-1.35A1.43,1.43,0,0,1,186.1,132.39Z" style="fill:#ebebeb"></path><path d="M186.52,132.57a2.24,2.24,0,1,0-1.42,1.27,2.47,2.47,0,0,0,.42-.17l.26.35a1.49,1.49,0,0,0,.31-.2l.06,0a.57.57,0,0,0,.11-.11,2,2,0,0,0,.31-.33l-.27-.35A1.68,1.68,0,0,0,186.52,132.57Zm-.58.17a1.21,1.21,0,0,1-.21.24l-.11.1-.06,0-.25.16-.07,0a1,1,0,0,1-.43.15,1.77,1.77,0,0,1-1.78-.66,1.84,1.84,0,0,1-.36-1.34,1.87,1.87,0,0,1,.69-1.19,1.81,1.81,0,0,1,2.85,1.88,1.89,1.89,0,0,1-.2.46S186,132.7,185.94,132.74Z" style="fill:#ebebeb"></path><polygon points="137.34 136.53 133.12 132.65 137.33 128.62 137.99 129.3 134.5 132.64 137.98 135.84 137.34 136.53" style="fill:#fff"></polygon><polygon points="147.52 128.61 151.74 132.49 147.53 136.53 146.87 135.85 150.36 132.5 146.88 129.3 147.52 128.61" style="fill:#fff"></polygon><path d="M605.25,137.32a5.42,5.42,0,0,1-1.6.67,5.51,5.51,0,0,1-4.26-.68,5.57,5.57,0,1,1,5.86,0Z" style="fill:#dbdbdb"></path><path d="M604,131.93a1.7,1.7,0,1,1-1.7-1.69A1.7,1.7,0,0,1,604,131.93Z" style="fill:#fff"></path><path d="M605.25,136.62v.7a5.42,5.42,0,0,1-1.6.67,5.51,5.51,0,0,1-4.26-.68v-.69a2.93,2.93,0,1,1,5.86,0Z" style="fill:#fff"></path><path d="M164.32,137.61a5.49,5.49,0,1,1,5.44-6.2l-1,.13a4.49,4.49,0,1,0-1.12,3.59l.74.67A5.49,5.49,0,0,1,164.32,137.61Z" style="fill:#fff"></path><polygon points="166.32 130.11 166.65 129.61 169.1 131.27 170.58 128.7 171.1 129 169.31 132.12 166.32 130.11" style="fill:#fff"></polygon><polygon points="364.77 92.17 276.79 92.17 272.79 109.31 368.77 109.31 364.77 92.17" style="fill:#FF551E"></polygon><g style="opacity:0.2"><rect x="356.89" y="96.92" width="0.83" height="7.64" transform="translate(33.4 282.13) rotate(-45)"></rect><rect x="356.89" y="96.92" width="0.83" height="7.64" transform="translate(175.86 -223.13) rotate(44.99)"></rect></g><rect x="311.24" y="197.9" width="128.17" height="98.34" transform="translate(750.65 494.14) rotate(180)" style="fill:#FF551E"></rect><path d="M324,219.41a11.64,11.64,0,1,0,9.14-9.14A11.64,11.64,0,0,0,324,219.41Z" style="fill:#fff;opacity:0.6000000000000001"></path><polygon points="353.52 275.06 439.41 275.06 396.47 222.13 353.52 275.06" style="fill:#FF551E"></polygon><polygon points="353.52 275.06 439.41 275.06 396.47 222.13 353.52 275.06" style="opacity:0.2"></polygon><polygon points="311.24 275.1 387.4 275.1 349.32 240.64 311.24 275.1" style="fill:#FF551E"></polygon><polygon points="311.24 275.1 387.4 275.1 349.32 240.64 311.24 275.1" style="opacity:0.1"></polygon><rect x="311.24" y="275.05" width="128.17" height="21.19" style="fill:#FF551E"></rect><rect x="311.24" y="275.05" width="128.17" height="21.19" style="opacity:0.1"></rect><rect x="149.37" y="309.85" width="67.78" height="5.7" style="fill:#a6a6a6"></rect><rect x="149.37" y="323.08" width="288.07" height="5.7" style="fill:#ebebeb"></rect><rect x="149.37" y="335.63" width="288.07" height="5.7" style="fill:#ebebeb"></rect><rect x="149.37" y="348.17" width="288.07" height="5.7" style="fill:#ebebeb"></rect><rect x="149.37" y="360.72" width="288.07" height="5.7" style="fill:#ebebeb"></rect><rect x="149.37" y="373.27" width="288.07" height="5.7" style="fill:#ebebeb"></rect><rect x="457.03" y="198.76" width="67.78" height="5.7" style="fill:#a6a6a6"></rect><rect x="457.03" y="211.99" width="144.03" height="5.7" style="fill:#ebebeb"></rect><rect x="457.03" y="224.54" width="144.03" height="5.7" style="fill:#ebebeb"></rect><rect x="457.03" y="237.08" width="144.03" height="5.7" style="fill:#ebebeb"></rect><rect x="457.03" y="249.63" width="144.03" height="5.7" style="fill:#ebebeb"></rect><rect x="457.03" y="272.89" width="144.03" height="5.7" style="fill:#ebebeb"></rect><rect x="457.03" y="285.44" width="144.03" height="5.7" style="fill:#ebebeb"></rect><rect x="457.03" y="297.99" width="144.03" height="5.7" style="fill:#ebebeb"></rect><rect x="457.03" y="310.53" width="144.03" height="5.7" style="fill:#ebebeb"></rect><rect x="457.03" y="323.08" width="144.03" height="5.7" style="fill:#ebebeb"></rect><rect x="457.03" y="348.17" width="144.03" height="5.7" style="fill:#ebebeb"></rect><rect x="457.03" y="360.72" width="97.08" height="5.7" style="fill:#ebebeb"></rect><rect x="149.37" y="197.9" width="67.78" height="15.26" style="fill:#a6a6a6"></rect><rect x="149.37" y="223.68" width="143.82" height="5.7" style="fill:#ebebeb"></rect><rect x="149.37" y="236.23" width="143.82" height="5.7" style="fill:#ebebeb"></rect><rect x="149.37" y="248.77" width="143.82" height="5.7" style="fill:#ebebeb"></rect><rect x="149.37" y="261.32" width="143.82" height="5.7" style="fill:#ebebeb"></rect><rect x="149.37" y="278.01" width="143.82" height="5.7" style="fill:#ebebeb"></rect><rect x="149.37" y="290.56" width="143.82" height="5.7" style="fill:#ebebeb"></rect></g><g id="freepik--speech-bubble--inject-7"><path d="M327.58,91.71a16.95,16.95,0,0,1-28.33,10.72l-8.48,1.25L295,96.35a17,17,0,1,1,32.57-4.64Z" style="fill:#fff"></path><path d="M327.58,91.71a17.07,17.07,0,0,1-3.42,8.59,15.58,15.58,0,0,1-3.33,3.29,17.07,17.07,0,0,1-4.09,2.28,16.66,16.66,0,0,1-4.56,1.08,19.22,19.22,0,0,1-4.71-.19,17.2,17.2,0,0,1-8.39-4.15l.2.07-8.47,1.3-.62.09.32-.54,4.22-7.35,0,.29a17.11,17.11,0,0,1,1-15.11,17.32,17.32,0,0,1,5.31-5.66,17.13,17.13,0,0,1,26.52,16Zm0,0a17,17,0,0,0-5.15-13.93,17.3,17.3,0,0,0-6.54-3.86,16.89,16.89,0,0,0-7.54-.56,16.71,16.71,0,0,0-7,2.76,17.58,17.58,0,0,0-5.08,5.54,16.69,16.69,0,0,0-.95,14.56l.06.15-.08.14L291,103.83l-.31-.45,8.49-1.19h.12l.08.07a16.78,16.78,0,0,0,8.12,4.19,14.89,14.89,0,0,0,2.3.28,16.54,16.54,0,0,0,6.85-1,15.87,15.87,0,0,0,4.09-2.21,15.39,15.39,0,0,0,3.34-3.24A17.18,17.18,0,0,0,327.58,91.71Z" style="fill:#263238"></path><path d="M304.16,90.62a1.85,1.85,0,1,1-1.85-1.84A1.84,1.84,0,0,1,304.16,90.62Z" style="fill:#263238"></path><path d="M312.76,90.62a1.84,1.84,0,1,1-1.84-1.84A1.84,1.84,0,0,1,312.76,90.62Z" style="fill:#263238"></path><path d="M321.37,90.62a1.85,1.85,0,1,1-1.84-1.84A1.84,1.84,0,0,1,321.37,90.62Z" style="fill:#263238"></path></g></svg>